<?xml version="1.0" encoding="UTF-8" standalone="no"?>
<svg
   version="1.1"
   viewBox="0 0 662455 97018.351"
   fill="none"
   stroke="none"
   stroke-linecap="square"
   stroke-miterlimit="10"
   id="svg8"
   sodipodi:docname="UXarray Logo (Final) (1).svg"
   inkscape:export-filename="logo_fin.svg"
   inkscape:export-xdpi="400"
   inkscape:export-ydpi="400"
   xml:space="preserve"
   inkscape:version="1.3.2 (091e20e, 2023-11-25, custom)"
   width="662455"
   height="97018.352"
   xmlns:inkscape="http://www.inkscape.org/namespaces/inkscape"
   xmlns:sodipodi="http://sodipodi.sourceforge.net/DTD/sodipodi-0.dtd"
   xmlns="http://www.w3.org/2000/svg"
   xmlns:svg="http://www.w3.org/2000/svg"><defs
     id="defs8"><style
       type="text/css"
       id="style1">*{stroke-linejoin: round; stroke-linecap: butt}</style><clipPath
       id="pda61f534b8"><path
         d="m 4039.2,2015.3183 -4.8685,140.0895 -14.5835,139.4092 -24.2329,138.0516 -33.7731,136.0234 -43.1603,133.334 -52.3516,129.9964 -61.3039,126.0264 -69.9748,121.4429 -78.3227,116.2678 -86.3062,110.5259 -93.8858,104.2448 -101.0225,97.4545 -107.6792,90.1879 -113.8203,82.4799 -119.4129,74.3681 -124.4256,65.8917 -128.8305,57.092 -132.6023,48.012 -135.7193,38.6961 -138.163,29.1899 -139.9191,19.5401 -140.9769,9.7941 h -141.3302 l -140.9769,-9.7941 -139.9191,-19.5401 -138.163,-29.1899 -135.7193,-38.6961 -132.6023,-48.012 -128.8305,-57.092 -124.4256,-65.8917 -119.41285,-74.3681 -113.82037,-82.4799 -107.67916,-90.1879 -101.02249,-97.4545 -93.8858,-104.2448 L 389.77127,3195.9595 311.44864,3079.6917 241.4738,2958.2488 180.1699,2832.2224 127.8183,2702.226 84.657963,2568.892 50.884927,2432.8686 26.651995,2294.817 12.068472,2155.4078 7.2,2015.3183 l 4.868472,-140.0896 14.583523,-139.4092 24.232932,-138.0516 33.773036,-136.0234 43.160337,-133.334 52.3516,-129.9964 61.3039,-126.0264 69.97484,-121.44288 78.32263,-116.26782 86.30626,-110.52593 93.8858,-104.24477 101.02249,-97.4545 107.67916,-90.18786 113.82037,-82.47995 119.41285,-74.3681 124.4256,-65.89169 128.8305,-57.09202 132.6023,-48.012 135.7193,-38.696064 138.163,-29.189875 L 1811.558,16.99415 1952.5349,7.2 h 141.3302 l 140.9769,9.79415 139.9191,19.540091 138.163,29.189875 135.7193,38.696064 132.6023,48.012 128.8305,57.09202 124.4256,65.89169 119.4129,74.3681 113.8203,82.47995 107.6792,90.18786 101.0225,97.4545 93.8858,104.24477 86.3062,110.52593 78.3227,116.26782 69.9748,121.44288 61.3039,126.0264 52.3516,129.9964 43.1603,133.334 33.7731,136.0234 24.2329,138.0516 14.5835,139.4092 4.8685,140.0896 v 0"
         id="path165" /></clipPath></defs><sodipodi:namedview
     id="namedview8"
     pagecolor="#ffffff"
     bordercolor="#000000"
     borderopacity="0.25"
     inkscape:showpageshadow="true"
     inkscape:pageopacity="0.0"
     inkscape:pagecheckerboard="true"
     inkscape:deskcolor="#d1d1d1"
     inkscape:export-bgcolor="#ffffff00"
     inkscape:zoom="1.7610049"
     inkscape:cx="489.20932"
     inkscape:cy="178.59122"
     inkscape:window-width="2560"
     inkscape:window-height="1369"
     inkscape:window-x="-8"
     inkscape:window-y="-8"
     inkscape:window-maximized="1"
     inkscape:current-layer="figure_1"
     showborder="true"
     borderlayer="true"
     shape-rendering="auto" /><clipPath
     id="p.0"><path
       d="M 0,0 H 813.9134 V 311.4777 H 0 Z"
       clip-rule="nonzero"
       id="path1" /></clipPath><g
     clip-path="url(#p.0)"
     id="g8"><path
       fill="#000000"
       fill-opacity="0"
       d="M 323.18372,87.01181 H 832.66407 V 255.0748 H 323.18372 Z"
       fill-rule="evenodd"
       id="path3" /><path
       fill="#666666"
       d="m 411.9181,132.81868 v 47.95312 q 0,17.17188 -9.14063,25.70313 -9.14062,8.53125 -27.04687,8.53125 -17.78125,0 -26.98438,-8.53125 -9.20312,-8.53125 -9.20312,-25.70313 v -47.95312 h 21.21875 v 48.32812 q 0,8.70313 3.73437,13 3.75,4.29688 11.23438,4.29688 7.59375,0 11.32812,-4.29688 3.75,-4.29687 3.75,-13 v -48.32812 z m 87.69537,80.95312 h -25.14063 l -15.21875,-25.875 -14.71875,25.875 h -23.92187 l 27.48437,-40.71875 -25.89062,-40.23437 h 24.90625 l 13.85937,24.78125 13.98438,-24.78125 h 22.9375 l -25.875,39.625 z"
       fill-rule="nonzero"
       id="path4" /><path
       fill="#000000"
       d="m 547.80963,174.1468 q 0,-6.85937 -3.6875,-10.59375 -3.67188,-3.75 -10.40625,-3.75 -6.39063,0 -10.8125,2.76563 -4.40625,2.75 -6.48438,8.89062 l -7.98437,-4.90625 q 2.45312,-6.875 9.07812,-11.10937 6.625,-4.23438 16.4375,-4.23438 6.625,0 12.01563,2.28125 5.40625,2.26563 8.53125,6.875 3.125,4.59375 3.125,11.82813 v 29.6875 q 0,4.40625 4.67187,4.40625 2.32813,0 4.53125,-0.60938 l -0.48437,7.71875 q -2.45313,1.23438 -6.39063,1.23438 -3.54687,0 -6.375,-1.34375 -2.8125,-1.35938 -4.40625,-4.10938 -1.59375,-2.76562 -1.59375,-6.9375 v -1.21875 l 2.45313,0.35938 q -1.48438,4.78125 -5.04688,7.79687 -3.54687,3 -7.96875,4.42188 -4.40625,1.40625 -8.70312,1.40625 -5.39063,0 -10.0625,-1.84375 -4.65625,-1.84375 -7.42188,-5.57813 -2.75,-3.75 -2.75,-9.26562 0,-6.875 4.59375,-11.34375 4.60938,-4.48438 12.82813,-6.07813 l 24.28125,-4.78125 v 8.09375 l -19.75,4.04688 q -6.01563,1.23437 -8.95313,3.4375 -2.9375,2.20312 -2.9375,6.125 0,3.8125 3,6.20312 3,2.39063 8.51563,2.39063 3.5625,0 6.8125,-0.92188 3.25,-0.92187 5.82812,-2.8125 2.57813,-1.90625 4.04688,-4.78125 1.46875,-2.89062 1.46875,-6.8125 z m 33.61096,39.625 v -61.32812 h 7.96875 l 1.35938,10.0625 q 2.57812,-5.64063 7.53125,-8.46875 4.96875,-2.82813 12.09375,-2.82813 1.59375,0 3.48437,0.25 1.90625,0.25 3.25,0.98438 l -1.70312,8.95312 q -1.35938,-0.48437 -2.95313,-0.73437 -1.59375,-0.25 -4.53125,-0.25 -3.8125,0 -7.67187,2.21875 -3.85938,2.20312 -6.4375,6.6875 -2.57813,4.46875 -2.57813,11.32812 v 33.125 z m 50.04382,0 v -61.32812 h 7.96875 l 1.35938,10.0625 q 2.57812,-5.64063 7.53125,-8.46875 4.96875,-2.82813 12.09375,-2.82813 1.59375,0 3.48437,0.25 1.90625,0.25 3.25,0.98438 l -1.70312,8.95312 q -1.35938,-0.48437 -2.95313,-0.73437 -1.59375,-0.25 -4.53125,-0.25 -3.8125,0 -7.67187,2.21875 -3.85938,2.20312 -6.4375,6.6875 -2.57813,4.46875 -2.57813,11.32812 v 33.125 z m 84.13898,-39.625 q 0,-6.85937 -3.6875,-10.59375 -3.67187,-3.75 -10.40625,-3.75 -6.39062,0 -10.8125,2.76563 -4.40625,2.75 -6.48437,8.89062 l -7.98438,-4.90625 q 2.45313,-6.875 9.07813,-11.10937 6.625,-4.23438 16.4375,-4.23438 6.625,0 12.01562,2.28125 5.40625,2.26563 8.53125,6.875 3.125,4.59375 3.125,11.82813 v 29.6875 q 0,4.40625 4.67188,4.40625 2.32812,0 4.53125,-0.60938 l -0.48438,7.71875 q -2.45312,1.23438 -6.39062,1.23438 -3.54688,0 -6.375,-1.34375 -2.8125,-1.35938 -4.40625,-4.10938 -1.59375,-2.76562 -1.59375,-6.9375 v -1.21875 l 2.45312,0.35938 q -1.48437,4.78125 -5.04687,7.79687 -3.54688,3 -7.96875,4.42188 -4.40625,1.40625 -8.70313,1.40625 -5.39062,0 -10.0625,-1.84375 -4.65625,-1.84375 -7.42187,-5.57813 -2.75,-3.75 -2.75,-9.26562 0,-6.875 4.59375,-11.34375 4.60937,-4.48438 12.82812,-6.07813 l 24.28125,-4.78125 v 8.09375 l -19.75,4.04688 q -6.01562,1.23437 -8.95312,3.4375 -2.9375,2.20312 -2.9375,6.125 0,3.8125 3,6.20312 3,2.39063 8.51562,2.39063 3.5625,0 6.8125,-0.92188 3.25,-0.92187 5.82813,-2.8125 2.57812,-1.90625 4.04687,-4.78125 1.46875,-2.89062 1.46875,-6.8125 z m 80.4599,-21.70312 -28.8125,71.625 q -2.32812,6.01562 -5.09375,9.51562 -2.76562,3.5 -6.14062,5.03125 -3.35938,1.53125 -7.78125,1.53125 -4.17188,0 -7.67188,-1.17187 -3.48437,-1.15625 -6.1875,-3.125 l 2.70313,-8.57813 q 2.45312,2.20313 5.20312,3.23438 2.76563,1.04687 5.46875,1.04687 3.1875,0 6,-1.96875 2.82813,-1.95312 5.15625,-7.96875 l 3.1875,-7.96875 -6.14062,-14.59375 -19.5,-46.60937 h 11.17187 l 15.32813,39.98437 3.79687,10.92188 4.42188,-12.14063 14.34375,-38.76562 z"
       fill-rule="nonzero"
       id="path5" /><g
       id="figure_1"
       transform="matrix(1.3333333,0,0,1.3333333,-2290.844,-2499.3729)"><g
         id="axes_1"
         transform="matrix(0.05343799,0,0,0.05343799,1722.0464,1881.1698)"><g
           id="patch_2"><path
             d="m 4039.2,2015.3183 -4.8685,140.0895 -14.5835,139.4092 -24.2329,138.0516 -33.7731,136.0234 -43.1603,133.334 -52.3516,129.9964 -61.3039,126.0264 -69.9748,121.4429 -78.3227,116.2678 -86.3062,110.5259 -93.8858,104.2448 -101.0225,97.4545 -107.6792,90.1879 -113.8203,82.4799 -119.4129,74.3681 -124.4256,65.8917 -128.8305,57.092 -132.6023,48.012 -135.7193,38.6961 -138.163,29.1899 -139.9191,19.5401 -140.9769,9.7941 h -141.3302 l -140.9769,-9.7941 -139.9191,-19.5401 -138.163,-29.1899 -135.7193,-38.6961 -132.6023,-48.012 -128.8305,-57.092 -124.4256,-65.8917 -119.41285,-74.3681 -113.82037,-82.4799 -107.67916,-90.1879 -101.02249,-97.4545 -93.8858,-104.2448 L 389.77127,3195.9595 311.44864,3079.6917 241.4738,2958.2488 180.1699,2832.2224 127.8183,2702.226 84.657963,2568.892 50.884927,2432.8686 26.651995,2294.817 12.068472,2155.4078 7.2,2015.3183 l 4.868472,-140.0896 14.583523,-139.4092 24.232932,-138.0516 33.773036,-136.0234 43.160337,-133.334 52.3516,-129.9964 61.3039,-126.0264 69.97484,-121.44288 78.32263,-116.26782 86.30626,-110.52593 93.8858,-104.24477 101.02249,-97.4545 107.67916,-90.18786 113.82037,-82.47995 119.41285,-74.3681 124.4256,-65.89169 128.8305,-57.09202 132.6023,-48.012 135.7193,-38.696064 138.163,-29.189875 L 1811.558,16.99415 1952.5349,7.2 h 141.3302 l 140.9769,9.79415 139.9191,19.540091 138.163,29.189875 135.7193,38.696064 132.6023,48.012 128.8305,57.09202 124.4256,65.89169 119.4129,74.3681 113.8203,82.47995 107.6792,90.18786 101.0225,97.4545 93.8858,104.24477 86.3062,110.52593 78.3227,116.26782 69.9748,121.44288 61.3039,126.0264 52.3516,129.9964 43.1603,133.334 33.7731,136.0234 24.2329,138.0516 14.5835,139.4092 4.8685,140.0896 v 0"
             style="fill:#ffffff"
             id="path2-5" /></g><g
           id="PatchCollection_1"><path
             d="m 127.78179,1328.5233 168.32284,-344.54769 -14.16105,18.17589 -40.46978,70.2362 -61.3039,126.0264 -52.3516,129.9964 z"
             clip-path="url(#pda61f534b8)"
             style="fill:#686845;stroke:#000000;stroke-width:30"
             id="path3-9" /><path
             d="m 281.94358,1002.1515 14.16105,-18.17589 24.39176,-46.4619 -9.04775,13.43111 z"
             clip-path="url(#pda61f534b8)"
             style="fill:#7f7a55;stroke:#000000;stroke-width:30"
             id="path4-5" /><path
             d="M 1615.8486,48.321149 1821.3861,27.025202 1963.9924,7.200007 1952.5349,7.2 1811.558,16.99415 1671.6389,36.534241 Z"
             clip-path="url(#pda61f534b8)"
             style="fill:#d9a873;stroke:#000000;stroke-width:30"
             id="path5-6" /><path
             d="m 1963.9923,7.200008 -142.6062,19.825194 609.1654,21.29596 -49.3756,-10.431624 -11.8711,-2.117261 L 2234.842,16.99415 2093.8651,7.2 Z"
             clip-path="url(#pda61f534b8)"
             style="fill:#be712a;stroke:#000000;stroke-width:30"
             id="path6-7" /><path
             d="m 2369.3047,35.772249 11.8717,2.117372 -6.4153,-1.35538 z"
             clip-path="url(#pda61f534b8)"
             style="fill:#be712a;stroke:#000000;stroke-width:30"
             id="path7" /><path
             d="m 1945.6543,3172.3564 511.2479,340.8239 102.8342,-473.7533 z"
             clip-path="url(#pda61f534b8)"
             style="fill:#ac9c75;stroke:#000000;stroke-width:30"
             id="path8" /><path
             d="m 2559.7364,3039.427 -102.8342,473.7533 606.7641,-370.3345 z"
             clip-path="url(#pda61f534b8)"
             style="fill:#c3ae86;stroke:#000000;stroke-width:30"
             id="path9" /><path
             d="m 3063.6663,3142.8458 -109.984,-586.2454 -393.9459,482.8266 z"
             clip-path="url(#pda61f534b8)"
             style="fill:#e5c89e;stroke:#000000;stroke-width:30"
             id="path10" /><path
             d="m 2559.7364,3039.427 393.9459,-482.8266 -704.7008,9.1509 z"
             clip-path="url(#pda61f534b8)"
             style="fill:#e5c89e;stroke:#000000;stroke-width:30"
             id="path11" /><path
             d="m 2559.7364,3039.427 -310.7549,-473.6757 -303.3272,606.6051 z"
             clip-path="url(#pda61f534b8)"
             style="fill:#b8a57d;stroke:#000000;stroke-width:30"
             id="path12" /><path
             d="m 3980.425,2493.6451 -2.6346,1.6911 -21.0501,89.0076 5.0017,-15.4518 z"
             clip-path="url(#pda61f534b8)"
             style="fill:#c68240;stroke:#000000;stroke-width:30"
             id="path13" /><path
             d="m 3956.7403,2584.3438 21.0501,-89.0076 -259.1624,565.4749 71.6728,-77.1797 14.6254,-25.3826 61.3039,-126.0264 52.3516,-129.9964 z"
             clip-path="url(#pda61f534b8)"
             style="fill:#ce9256;stroke:#000000;stroke-width:30"
             id="path14" /><path
             d="m 3790.3008,2983.6314 -71.6728,77.1797 -69.2598,144.4465 7.2605,-9.2981 78.3227,-116.2678 z"
             clip-path="url(#pda61f534b8)"
             style="fill:#d49d64;stroke:#000000;stroke-width:30"
             id="path15" /><path
             d="M 431.31742,2533.3224 135.99999,2509.7774 404.5,2970.3835 Z"
             clip-path="url(#pda61f534b8)"
             style="fill:#464e2c;stroke:#000000;stroke-width:30"
             id="path16" /><path
             d="M 404.5,2970.3835 135.99999,2509.7774 302.0724,3050.1244 Z"
             clip-path="url(#pda61f534b8)"
             style="fill:#2f3d1c;stroke:#000000;stroke-width:30"
             id="path17" /><path
             d="M 302.0724,3050.1244 697.21476,3432.2024 404.5,2970.3835 Z"
             clip-path="url(#pda61f534b8)"
             style="fill:#2f3d1c;stroke:#000000;stroke-width:30"
             id="path18" /><path
             d="m 404.5,2970.3835 292.71476,461.8189 98.11517,-302.9929 z"
             clip-path="url(#pda61f534b8)"
             style="fill:#2f3d1c;stroke:#000000;stroke-width:30"
             id="path19" /><path
             d="m 404.5,2970.3835 390.82993,158.826 -364.01251,-595.8871 z"
             clip-path="url(#pda61f534b8)"
             style="fill:#464e2c;stroke:#000000;stroke-width:30"
             id="path20" /><path
             d="M 830.2511,898.58981 896.78729,1478.9647 1288.1498,996.9703 Z"
             clip-path="url(#pda61f534b8)"
             style="fill:#dabf96;stroke:#000000;stroke-width:30"
             id="path21" /><path
             d="M 896.78729,1478.9647 1565.8615,1466.5898 1288.1498,996.9703 Z"
             clip-path="url(#pda61f534b8)"
             style="fill:#e5c89e;stroke:#000000;stroke-width:30"
             id="path22" /><path
             d="m 1895.2263,858.53955 -607.0765,138.43075 277.7117,469.6195 z"
             clip-path="url(#pda61f534b8)"
             style="fill:#e4be90;stroke:#000000;stroke-width:30"
             id="path23" /><path
             d="M 1895.2263,858.53955 1428.3711,524.08074 1288.1498,996.9703 Z"
             clip-path="url(#pda61f534b8)"
             style="fill:#dfb381;stroke:#000000;stroke-width:30"
             id="path24" /><path
             d="m 830.2511,898.58981 457.8987,98.38049 140.2213,-472.88956 z"
             clip-path="url(#pda61f534b8)"
             style="fill:#e7c497;stroke:#000000;stroke-width:30"
             id="path25" /><path
             d="m 2430.5513,3982.3154 -260.634,24.0574 -64.0339,16.2288 h -1e-4 l 128.9587,-8.9592 139.9191,-19.5401 z"
             clip-path="url(#pda61f534b8)"
             style="fill:#968b65;stroke:#000000;stroke-width:30"
             id="path26" /><path
             d="m 2105.8833,4022.6016 64.034,-16.2288 -554.0687,-24.0574 55.7903,11.7869 139.9191,19.5401 140.9769,9.7941 h 141.3302 z"
             clip-path="url(#pda61f534b8)"
             style="fill:#2f3d1c;stroke:#000000;stroke-width:30"
             id="path27" /><path
             d="M 3544.3624,1047.672 3707.8345,966.33643 3266.27,583.42105 Z"
             clip-path="url(#pda61f534b8)"
             style="fill:#be712a;stroke:#000000;stroke-width:30"
             id="path28" /><path
             d="M 3266.27,583.42105 3102.6135,890.32492 3544.3624,1047.672 Z"
             clip-path="url(#pda61f534b8)"
             style="fill:#be712a;stroke:#000000;stroke-width:30"
             id="path29" /><path
             d="M 3544.3624,1047.672 3102.6135,890.32492 3475.2397,1490.4928 Z"
             clip-path="url(#pda61f534b8)"
             style="fill:#c68240;stroke:#000000;stroke-width:30"
             id="path30" /><path
             d="m 3475.2397,1490.4928 367.0816,22.7912 -297.9589,-465.612 z"
             clip-path="url(#pda61f534b8)"
             style="fill:#c68240;stroke:#000000;stroke-width:30"
             id="path31" /><path
             d="M 3842.3213,1513.284 3707.8345,966.33643 3544.3624,1047.672 Z"
             clip-path="url(#pda61f534b8)"
             style="fill:#be712a;stroke:#000000;stroke-width:30"
             id="path32" /><path
             d="m 158.24689,1449.4193 -138.381746,565.899 180.389806,-32.815 z"
             clip-path="url(#pda61f534b8)"
             style="fill:#686845;stroke:#000000;stroke-width:30"
             id="path33" /><path
             d="m 28.45441,1725.5514 -8.589266,289.7669 138.381746,-565.899 -87.853934,69.7786 -19.508029,78.57 z"
             clip-path="url(#pda61f534b8)"
             style="fill:#5d603c;stroke:#000000;stroke-width:30"
             id="path34" /><path
             d="m 7.519383,2024.5084 12.345761,-9.1901 8.589233,-289.7666 4.8e-5,-4e-4 -1.80243,10.2682 L 12.068472,1875.2287 7.2,2015.3183 Z"
             clip-path="url(#pda61f534b8)"
             style="fill:#3a4624;stroke:#000000;stroke-width:30"
             id="path35" /><path
             d="m 29.823849,2312.8866 -9.958705,-297.5683 -12.345753,9.1901 h -7e-6 l 4.549088,130.8994 14.583523,139.4092 z"
             clip-path="url(#pda61f534b8)"
             style="fill:#2f3d1c;stroke:#000000;stroke-width:30"
             id="path36" /><path
             d="m 78.45036,2543.8904 57.54963,-34.113 -116.134846,-494.4591 9.958689,297.5681 21.061094,119.9822 z"
             clip-path="url(#pda61f534b8)"
             style="fill:#2f3d1c;stroke:#000000;stroke-width:30"
             id="path37" /><path
             d="m 200.25495,1982.5033 -180.389806,32.815 116.134846,494.4591 z"
             clip-path="url(#pda61f534b8)"
             style="fill:#515734;stroke:#000000;stroke-width:30"
             id="path38" /><path
             d="M 437.44831,1424.0552 488.51169,896.50303 158.24689,1449.4193 Z"
             clip-path="url(#pda61f534b8)"
             style="fill:#a1946d;stroke:#000000;stroke-width:30"
             id="path39" /><path
             d="M 437.44831,1424.0552 830.2511,898.58981 488.51169,896.50303 Z"
             clip-path="url(#pda61f534b8)"
             style="fill:#c3ae86;stroke:#000000;stroke-width:30"
             id="path40" /><path
             d="m 488.51169,896.50303 341.73941,2.08678 158.22198,-447.4563 z"
             clip-path="url(#pda61f534b8)"
             style="fill:#dabf96;stroke:#000000;stroke-width:30"
             id="path41" /><path
             d="M 988.47308,451.13351 691.42933,515.19931 488.51169,896.50303 Z"
             clip-path="url(#pda61f534b8)"
             style="fill:#cfb68e;stroke:#000000;stroke-width:30"
             id="path42" /><path
             d="m 691.42933,515.19931 -395.3247,468.7763 192.40706,-87.47258 z"
             clip-path="url(#pda61f534b8)"
             style="fill:#ac9c75;stroke:#000000;stroke-width:30"
             id="path43" /><path
             d="M 296.10463,983.97561 158.24689,1449.4193 488.51169,896.50303 Z"
             clip-path="url(#pda61f534b8)"
             style="fill:#968b65;stroke:#000000;stroke-width:30"
             id="path44" /><path
             d="m 638.21995,554.06043 53.20938,-38.86112 29.84748,-34.86926 1.6e-4,-1.5e-4 -50.29115,42.1219 z"
             clip-path="url(#pda61f534b8)"
             style="fill:#ac9c75;stroke:#000000;stroke-width:30"
             id="path45" /><path
             d="m 721.27691,480.32996 -29.84758,34.86935 524.21967,-330.22039 -112.8805,42.31505 -90.8703,48.12192 -119.41285,74.3681 -113.82037,82.47995 z"
             clip-path="url(#pda61f534b8)"
             style="fill:#cfb68e;stroke:#000000;stroke-width:30"
             id="path46" /><path
             d="m 1102.7685,227.29397 112.8805,-42.31505 20.7819,-19.81778 -100.1071,44.36306 z"
             clip-path="url(#pda61f534b8)"
             style="fill:#dabf96;stroke:#000000;stroke-width:30"
             id="path47" /><path
             d="m 2973.4571,243.08864 -85.001,-4.06139 491.5785,289.10658 -18.0503,-16.93036 -94.2493,-78.93953 -113.8203,-82.47995 -119.4129,-74.3681 z"
             clip-path="url(#pda61f534b8)"
             style="fill:#be712a;stroke:#000000;stroke-width:30"
             id="path48" /><path
             d="m 2520.6817,67.935975 -16.853,-4.133443 -4e-4,-8.8e-5 -21.7254,-4.589939 406.3532,179.814745 85.001,4.0614 -63.3809,-33.56445 -128.8305,-57.09202 -132.6023,-48.012 z"
             clip-path="url(#pda61f534b8)"
             style="fill:#be712a;stroke:#000000;stroke-width:30"
             id="path49" /><path
             d="M 2461.9663,54.958206 2281.4788,124.97699 2888.4561,239.02725 2482.1029,59.212511 2472.0346,57.085348 Z"
             clip-path="url(#pda61f534b8)"
             style="fill:#be712a;stroke:#000000;stroke-width:30"
             id="path50" /><path
             d="M 2888.4561,239.02725 2281.4788,124.97699 2725.5335,418.53306 Z"
             clip-path="url(#pda61f534b8)"
             style="fill:#be712a;stroke:#000000;stroke-width:30"
             id="path51" /><path
             d="M 2725.5335,418.53306 3266.27,583.42105 2888.4561,239.02725 Z"
             clip-path="url(#pda61f534b8)"
             style="fill:#be712a;stroke:#000000;stroke-width:30"
             id="path52" /><path
             d="M 3380.0346,528.13383 2888.4561,239.02725 3266.27,583.42105 Z"
             clip-path="url(#pda61f534b8)"
             style="fill:#be712a;stroke:#000000;stroke-width:30"
             id="path53" /><path
             d="M 2281.4788,124.97699 1821.3861,27.025202 1614.4107,189.9367 Z"
             clip-path="url(#pda61f534b8)"
             style="fill:#c98747;stroke:#000000;stroke-width:30"
             id="path54" /><path
             d="m 1215.649,184.97892 398.7617,4.95778 206.9754,-162.911498 z"
             clip-path="url(#pda61f534b8)"
             style="fill:#d7a36b;stroke:#000000;stroke-width:30"
             id="path55" /><path
             d="M 988.47308,451.13351 1614.4107,189.9367 1215.649,184.97892 Z"
             clip-path="url(#pda61f534b8)"
             style="fill:#dfb381;stroke:#000000;stroke-width:30"
             id="path56" /><path
             d="M 988.47308,451.13351 1428.3711,524.08074 1614.4107,189.9367 Z"
             clip-path="url(#pda61f534b8)"
             style="fill:#dfb381;stroke:#000000;stroke-width:30"
             id="path57" /><path
             d="M 1614.4107,189.9367 1428.3711,524.08074 2087.5667,395.56636 Z"
             clip-path="url(#pda61f534b8)"
             style="fill:#d49d64;stroke:#000000;stroke-width:30"
             id="path58" /><path
             d="m 1614.4107,189.9367 473.156,205.62966 193.9121,-270.58937 z"
             clip-path="url(#pda61f534b8)"
             style="fill:#cc8d4e;stroke:#000000;stroke-width:30"
             id="path59" /><path
             d="m 3273.6774,2015.3183 198.2539,599.0074 267.3092,-565.6993 z"
             clip-path="url(#pda61f534b8)"
             style="fill:#d7a36b;stroke:#000000;stroke-width:30"
             id="path60" /><path
             d="m 3273.6774,2015.3183 465.5631,33.3081 -264.0008,-558.1336 z"
             clip-path="url(#pda61f534b8)"
             style="fill:#d1985d;stroke:#000000;stroke-width:30"
             id="path61" /><path
             d="m 3273.6774,2015.3183 201.5623,-524.8255 -546.6408,-93.7117 z"
             clip-path="url(#pda61f534b8)"
             style="fill:#d49d64;stroke:#000000;stroke-width:30"
             id="path62" /><path
             d="m 2633.2498,1979.7624 640.4276,35.5559 -345.0785,-618.5372 z"
             clip-path="url(#pda61f534b8)"
             style="fill:#dcae7a;stroke:#000000;stroke-width:30"
             id="path63" /><path
             d="m 2633.2498,1979.7624 320.4325,576.838 319.9951,-541.2821 z"
             clip-path="url(#pda61f534b8)"
             style="fill:#e1b989;stroke:#000000;stroke-width:30"
             id="path64" /><path
             d="m 3273.6774,2015.3183 -319.9951,541.2821 518.249,57.7253 z"
             clip-path="url(#pda61f534b8)"
             style="fill:#dfb381;stroke:#000000;stroke-width:30"
             id="path65" /><path
             d="m 2633.2498,1979.7624 -369.0179,-592.8186 -362.8961,628.3745 z"
             clip-path="url(#pda61f534b8)"
             style="fill:#e4be90;stroke:#000000;stroke-width:30"
             id="path66" /><path
             d="m 1901.3358,2015.3183 362.8961,-628.3745 -698.3704,79.646 z"
             clip-path="url(#pda61f534b8)"
             style="fill:#e7c497;stroke:#000000;stroke-width:30"
             id="path67" /><path
             d="m 1565.8615,1466.5898 -377.7438,584.0523 713.2181,-35.3238 z"
             clip-path="url(#pda61f534b8)"
             style="fill:#dabf96;stroke:#000000;stroke-width:30"
             id="path68" /><path
             d="m 1553.4817,2641.6725 347.8541,-626.3542 -713.2181,35.3238 z"
             clip-path="url(#pda61f534b8)"
             style="fill:#c3ae86;stroke:#000000;stroke-width:30"
             id="path69" /><path
             d="m 1901.3358,2015.3183 -347.8541,626.3542 695.4998,-75.9212 z"
             clip-path="url(#pda61f534b8)"
             style="fill:#cfb68e;stroke:#000000;stroke-width:30"
             id="path70" /><path
             d="m 1901.3358,2015.3183 347.6457,550.433 384.2683,-585.9889 z"
             clip-path="url(#pda61f534b8)"
             style="fill:#eac99e;stroke:#000000;stroke-width:30"
             id="path71" /><path
             d="m 1945.6543,3172.3564 -392.1726,-530.6839 -224.7171,562.0603 z"
             clip-path="url(#pda61f534b8)"
             style="fill:#968b65;stroke:#000000;stroke-width:30"
             id="path72" /><path
             d="m 922.59334,2628.367 406.17126,575.3658 224.7171,-562.0603 z"
             clip-path="url(#pda61f534b8)"
             style="fill:#8a825d;stroke:#000000;stroke-width:30"
             id="path73" /><path
             d="m 922.59334,2628.367 -127.26341,500.8425 533.43467,74.5233 z"
             clip-path="url(#pda61f534b8)"
             style="fill:#686845;stroke:#000000;stroke-width:30"
             id="path74" /><path
             d="m 795.32993,3129.2095 396.82887,472.605 136.6058,-398.0817 z"
             clip-path="url(#pda61f534b8)"
             style="fill:#464e2c;stroke:#000000;stroke-width:30"
             id="path75" /><path
             d="m 1801.8626,3633.0863 -473.098,-429.3535 -136.6058,398.0817 z"
             clip-path="url(#pda61f534b8)"
             style="fill:#515734;stroke:#000000;stroke-width:30"
             id="path76" /><path
             d="m 1328.7646,3203.7328 473.098,429.3535 143.7917,-460.7299 z"
             clip-path="url(#pda61f534b8)"
             style="fill:#73714d;stroke:#000000;stroke-width:30"
             id="path77" /><path
             d="m 2320.8343,3846.0588 136.0679,-332.8785 -655.0396,119.906 z"
             clip-path="url(#pda61f534b8)"
             style="fill:#7f7a55;stroke:#000000;stroke-width:30"
             id="path78" /><path
             d="m 1668.3223,3900.9073 652.512,-54.8485 -518.9717,-212.9725 z"
             clip-path="url(#pda61f534b8)"
             style="fill:#515734;stroke:#000000;stroke-width:30"
             id="path79" /><path
             d="m 2320.8343,3846.0588 -652.512,54.8485 501.595,105.4655 z"
             clip-path="url(#pda61f534b8)"
             style="fill:#464e2c;stroke:#000000;stroke-width:30"
             id="path80" /><path
             d="m 2777.0913,3857.1008 -456.257,-11.042 -150.917,160.314 z"
             clip-path="url(#pda61f534b8)"
             style="fill:#8a825d;stroke:#000000;stroke-width:30"
             id="path81" /><path
             d="m 2777.0913,3857.1008 173.7169,-264.7801 -629.9739,253.7381 z"
             clip-path="url(#pda61f534b8)"
             style="fill:#ac9c75;stroke:#000000;stroke-width:30"
             id="path82" /><path
             d="m 2320.8343,3846.0588 629.9739,-253.7381 -493.906,-79.1404 z"
             clip-path="url(#pda61f534b8)"
             style="fill:#a1946d;stroke:#000000;stroke-width:30"
             id="path83" /><path
             d="m 3464.4042,3148.0333 -400.7379,-5.1875 -112.8581,449.4749 z"
             clip-path="url(#pda61f534b8)"
             style="fill:#eac99e;stroke:#000000;stroke-width:30"
             id="path84" /><path
             d="m 2950.8082,3592.3207 359.4707,-61.1214 154.1253,-383.166 z"
             clip-path="url(#pda61f534b8)"
             style="fill:#e7c497;stroke:#000000;stroke-width:30"
             id="path85" /><path
             d="m 3464.4042,3148.0333 -154.1253,383.166 408.3491,-470.3882 z"
             clip-path="url(#pda61f534b8)"
             style="fill:#dfb381;stroke:#000000;stroke-width:30"
             id="path86" /><path
             d="m 3718.628,3060.8111 100.0986,-471.0282 -354.3224,558.2504 z"
             clip-path="url(#pda61f534b8)"
             style="fill:#d9a873;stroke:#000000;stroke-width:30"
             id="path87" /><path
             d="m 3471.9313,2614.3257 -7.5271,533.7076 354.3224,-558.2504 z"
             clip-path="url(#pda61f534b8)"
             style="fill:#dcae7a;stroke:#000000;stroke-width:30"
             id="path88" /><path
             d="m 3063.6663,3142.8458 400.7379,5.1875 7.5271,-533.7076 z"
             clip-path="url(#pda61f534b8)"
             style="fill:#e4be90;stroke:#000000;stroke-width:30"
             id="path89" /><path
             d="M 3991.3705,2015.3183 3842.3213,1513.284 3739.2405,2048.6264 Z"
             clip-path="url(#pda61f534b8)"
             style="fill:#c98747;stroke:#000000;stroke-width:30"
             id="path90" /><path
             d="m 3818.7266,2589.7829 172.6439,-574.4646 -252.13,33.3081 z"
             clip-path="url(#pda61f534b8)"
             style="fill:#ce9256;stroke:#000000;stroke-width:30"
             id="path91" /><path
             d="m 3818.7266,2589.7829 159.0638,-94.4467 13.5801,-480.0179 z"
             clip-path="url(#pda61f534b8)"
             style="fill:#cc8d4e;stroke:#000000;stroke-width:30"
             id="path92" /><path
             d="m 4038.5502,1996.6216 -47.1797,18.6967 -13.5801,480.0179 23.5397,-95.5953 10e-5,-4e-4 18.4178,-104.9235 14.5835,-139.4092 4.8685,-140.0895 v 0 z"
             clip-path="url(#pda61f534b8)"
             style="fill:#c37c39;stroke:#000000;stroke-width:30"
             id="path93" /><path
             d="m 3996.2061,1601.7049 -35.3848,-134.643 30.5492,548.2564 47.1797,-18.6967 -4.2187,-121.3929 -14.5835,-139.4092 z"
             clip-path="url(#pda61f534b8)"
             style="fill:#be712a;stroke:#000000;stroke-width:30"
             id="path94" /><path
             d="m 3960.8213,1467.0619 -118.5,46.2221 149.0492,502.0343 z"
             clip-path="url(#pda61f534b8)"
             style="fill:#c17731;stroke:#000000;stroke-width:30"
             id="path95" /><path
             d="m 3440.654,3445.2491 -130.3751,85.9502 -61.3819,80.8242 18.838,-13.6509 107.6792,-90.1879 z"
             clip-path="url(#pda61f534b8)"
             style="fill:#dfb381;stroke:#000000;stroke-width:30"
             id="path96" /><path
             d="m 3248.897,3612.0235 61.3819,-80.8242 -533.1876,325.9015 188.0681,-65.1587 69.3424,-36.7215 119.4129,-74.3681 z"
             clip-path="url(#pda61f534b8)"
             style="fill:#e7c497;stroke:#000000;stroke-width:30"
             id="path97" /><path
             d="m 2965.1592,3791.9422 -188.0679,65.1586 -20.2362,29.9347 24.3906,-8.8312 128.8305,-57.092 z"
             clip-path="url(#pda61f534b8)"
             style="fill:#eac99e;stroke:#000000;stroke-width:30"
             id="path98" /><path
             d="m 479.81311,3310.6332 -177.74071,-260.5088 -7.97294,-0.5426 17.34918,30.1099 78.32263,116.2678 86.30626,110.5259 z"
             clip-path="url(#pda61f534b8)"
             style="fill:#2f3d1c;stroke:#000000;stroke-width:30"
             id="path99" /><path
             d="m 294.09946,3049.5818 7.97294,0.5426 -129.56745,-236.9352 7.66495,19.0332 61.3039,126.0264 z"
             clip-path="url(#pda61f534b8)"
             style="fill:#2f3d1c;stroke:#000000;stroke-width:30"
             id="path100" /><path
             d="m 1050.7113,3775.7748 46.5207,3.1011 -343.26298,-201.1877 24.69596,20.6844 113.82037,82.4799 119.41285,74.3681 z"
             clip-path="url(#pda61f534b8)"
             style="fill:#2f3d1c;stroke:#000000;stroke-width:30"
             id="path101" /><path
             d="m 1533.8577,3964.993 -436.6257,-186.1171 -46.5206,-3.1011 h -10e-5 l 85.6125,45.3375 128.8305,57.092 132.6023,48.012 135.7193,38.6961 z"
             clip-path="url(#pda61f534b8)"
             style="fill:#2f3d1c;stroke:#000000;stroke-width:30"
             id="path102" /><path
             d="m 1544.8032,3967.3055 19.9815,-34.6324 103.5376,-31.7658 -571.0903,-122.0314 344.4095,159.8528 91.4056,26.0614 0.8105,0.2029 z"
             clip-path="url(#pda61f534b8)"
             style="fill:#2f3d1c;stroke:#000000;stroke-width:30"
             id="path103" /><path
             d="m 1668.3223,3900.9073 -476.1635,-299.0928 -94.9268,177.0614 z"
             clip-path="url(#pda61f534b8)"
             style="fill:#2f3d1c;stroke:#000000;stroke-width:30"
             id="path104" /><path
             d="M 1192.1588,3601.8145 697.21476,3432.2024 1097.232,3778.8759 Z"
             clip-path="url(#pda61f534b8)"
             style="fill:#2f3d1c;stroke:#000000;stroke-width:30"
             id="path105" /><path
             d="m 753.9692,3577.6883 343.2628,201.1876 -400.01724,-346.6735 -60.96576,42.4723 34.73682,33.51 z"
             clip-path="url(#pda61f534b8)"
             style="fill:#2f3d1c;stroke:#000000;stroke-width:30"
             id="path106" /><path
             d="m 431.31742,2533.3224 166.5029,-518.0041 -397.56537,-32.815 z"
             clip-path="url(#pda61f534b8)"
             style="fill:#73714d;stroke:#000000;stroke-width:30"
             id="path107" /><path
             d="M 431.31742,2533.3224 922.59334,2628.367 597.82032,2015.3183 Z"
             clip-path="url(#pda61f534b8)"
             style="fill:#7f7a55;stroke:#000000;stroke-width:30"
             id="path108" /><path
             d="M 1188.1177,2050.6421 597.82032,2015.3183 922.59334,2628.367 Z"
             clip-path="url(#pda61f534b8)"
             style="fill:#968b65;stroke:#000000;stroke-width:30"
             id="path109" /><path
             d="m 597.82032,2015.3183 590.29738,35.3238 -291.33041,-571.6774 z"
             clip-path="url(#pda61f534b8)"
             style="fill:#ac9c75;stroke:#000000;stroke-width:30"
             id="path110" /><path
             d="m 437.44831,1424.0552 160.37201,591.2631 298.96697,-536.3536 z"
             clip-path="url(#pda61f534b8)"
             style="fill:#ac9c75;stroke:#000000;stroke-width:30"
             id="path111" /><path
             d="m 200.25495,1982.5033 397.56537,32.815 -160.37201,-591.2631 z"
             clip-path="url(#pda61f534b8)"
             style="fill:#8a825d;stroke:#000000;stroke-width:30"
             id="path112" /><path
             d="M 2087.5667,395.56636 2529.9253,820.6077 2725.5335,418.53306 Z"
             clip-path="url(#pda61f534b8)"
             style="fill:#c98747;stroke:#000000;stroke-width:30"
             id="path113" /><path
             d="M 2529.9253,820.6077 2087.5667,395.56636 1895.2263,858.53955 Z"
             clip-path="url(#pda61f534b8)"
             style="fill:#d1985d;stroke:#000000;stroke-width:30"
             id="path114" /><path
             d="m 1895.2263,858.53955 369.0056,528.40425 265.6934,-566.3361 z"
             clip-path="url(#pda61f534b8)"
             style="fill:#d9a873;stroke:#000000;stroke-width:30"
             id="path115" /><path
             d="M 2928.5989,1396.7811 2529.9253,820.6077 2264.2319,1386.9438 Z"
             clip-path="url(#pda61f534b8)"
             style="fill:#d7a36b;stroke:#000000;stroke-width:30"
             id="path116" /><path
             d="m 2529.9253,820.6077 398.6736,576.1734 174.0146,-506.45618 z"
             clip-path="url(#pda61f534b8)"
             style="fill:#ce9256;stroke:#000000;stroke-width:30"
             id="path117" /><path
             d="m 2725.5335,418.53306 -195.6082,402.07464 572.6882,69.71722 z"
             clip-path="url(#pda61f534b8)"
             style="fill:#c68240;stroke:#000000;stroke-width:30"
             id="path118" /><path
             d="m 3384.464,531.18196 -4.4294,-3.04813 18.3407,16.46818 -6.9556,-6.71003 z"
             clip-path="url(#pda61f534b8)"
             style="fill:#be712a;stroke:#000000;stroke-width:30"
             id="path119" /><path
             d="m 3474.4682,618.00734 3.4348,3.52708 -1.4663,-1.62812 z"
             clip-path="url(#pda61f534b8)"
             style="fill:#be712a;stroke:#000000;stroke-width:30"
             id="path120" /><path
             d="m 3477.9029,621.5343 -97.8683,-93.40047 327.7999,438.2026 36.9348,1.64757 -9.8179,-17.03918 -78.3227,-116.26782 -86.3062,-110.52593 z"
             clip-path="url(#pda61f534b8)"
             style="fill:#be712a;stroke:#000000;stroke-width:30"
             id="path121" /><path
             d="m 3918.7904,1329.0553 -0.424,-1.1795 -52.1363,-129.4617 -61.3039,-126.0264 -60.157,-104.4037 -36.9347,-1.64757 252.9868,500.72547 -13.321,-49.3139 z"
             clip-path="url(#pda61f534b8)"
             style="fill:#be712a;stroke:#000000;stroke-width:30"
             id="path122" /><path
             d="m 3918.3663,1327.8756 42.455,139.1863 2.8999,2.6539 -1.9792,-7.9713 -43.1603,-133.334 z"
             clip-path="url(#pda61f534b8)"
             style="fill:#be712a;stroke:#000000;stroke-width:30"
             id="path123" /><path
             d="m 320.49641,937.51368 -24.39178,46.46193 395.3247,-468.7763 -53.20944,38.86118 -68.25656,65.84581 -93.8858,104.24477 -86.30626,110.52593 z"
             clip-path="url(#pda61f534b8)"
             style="fill:#968b65;stroke:#000000;stroke-width:30"
             id="path124" /><path
             d="m 70.392964,1519.1979 87.853926,-69.7786 137.85774,-465.44369 -123.07258,232.16279 -45.16746,112.1572 -0.0828,0.2276 -43.123857,133.2213 z"
             clip-path="url(#pda61f534b8)"
             style="fill:#73714d;stroke:#000000;stroke-width:30"
             id="path125" /><path
             d="m 1236.4309,165.16112 -20.7819,19.8178 605.7371,-157.953718 -205.5375,21.295942 -82.3727,17.402972 -135.7193,38.696064 -132.6023,48.012 z"
             clip-path="url(#pda61f534b8)"
             style="fill:#dfb381;stroke:#000000;stroke-width:30"
             id="path126" /><path
             d="m 2430.5515,48.321166 -609.1654,-21.295964 460.0927,97.951788 180.4875,-70.018782 -15.7074,-3.318526 z"
             clip-path="url(#pda61f534b8)"
             style="fill:#be712a;stroke:#000000;stroke-width:30"
             id="path127" /><path
             d="m 2503.8286,63.802514 16.853,4.133429 4e-4,1.15e-4 -7.7579,-2.211942 z"
             clip-path="url(#pda61f534b8)"
             style="fill:#be712a;stroke:#000000;stroke-width:30"
             id="path128" /><path
             d="m 2456.9022,3513.1803 493.906,79.1404 112.8581,-449.4749 z"
             clip-path="url(#pda61f534b8)"
             style="fill:#c3ae86;stroke:#000000;stroke-width:30"
             id="path129" /><path
             d="m 3471.9313,2614.3257 -518.249,-57.7253 109.984,586.2454 z"
             clip-path="url(#pda61f534b8)"
             style="fill:#e4be90;stroke:#000000;stroke-width:30"
             id="path130" /><path
             d="m 2248.9815,2565.7513 704.7008,-9.1509 -320.4325,-576.838 z"
             clip-path="url(#pda61f534b8)"
             style="fill:#eac99e;stroke:#000000;stroke-width:30"
             id="path131" /><path
             d="m 1553.4817,2641.6725 392.1726,530.6839 303.3272,-606.6051 z"
             clip-path="url(#pda61f534b8)"
             style="fill:#b8a57d;stroke:#000000;stroke-width:30"
             id="path132" /><path
             d="m 1801.8626,3633.0863 655.0396,-119.906 -511.2479,-340.8239 z"
             clip-path="url(#pda61f534b8)"
             style="fill:#8a825d;stroke:#000000;stroke-width:30"
             id="path133" /><path
             d="m 4001.3302,2399.7407 -23.5398,95.5955 2.6346,-1.6911 15.0901,-60.7765 z"
             clip-path="url(#pda61f534b8)"
             style="fill:#c17731;stroke:#000000;stroke-width:30"
             id="path134" /><path
             d="m 3818.7266,2589.7829 -100.0986,471.0282 259.1624,-565.4749 z"
             clip-path="url(#pda61f534b8)"
             style="fill:#d1985d;stroke:#000000;stroke-width:30"
             id="path135" /><path
             d="m 3649.3682,3205.2575 69.2598,-144.4464 -408.3491,470.3882 130.3752,-85.9503 35.7826,-34.5188 93.8858,-104.2448 z"
             clip-path="url(#pda61f534b8)"
             style="fill:#dcae7a;stroke:#000000;stroke-width:30"
             id="path136" /><path
             d="m 172.50494,2813.1892 129.56746,236.9352 -166.07241,-540.347 -57.549627,34.113 6.2076,25.0016 43.160337,133.334 z"
             clip-path="url(#pda61f534b8)"
             style="fill:#2f3d1c;stroke:#000000;stroke-width:30"
             id="path137" /><path
             d="m 636.249,3474.6747 60.96576,-42.4723 -395.14236,-382.078 120.92602,188.3866 56.81474,72.1222 90.15017,100.097 z"
             clip-path="url(#pda61f534b8)"
             style="fill:#2f3d1c;stroke:#000000;stroke-width:30"
             id="path138" /><path
             d="m 1192.1588,3601.8145 -396.82887,-472.605 -98.11517,302.9929 z"
             clip-path="url(#pda61f534b8)"
             style="fill:#2f3d1c;stroke:#000000;stroke-width:30"
             id="path139" /><path
             d="m 922.59334,2628.367 -491.27592,-95.0446 364.01251,595.8871 z"
             clip-path="url(#pda61f534b8)"
             style="fill:#5d603c;stroke:#000000;stroke-width:30"
             id="path140" /><path
             d="m 200.25495,1982.5033 -64.25496,527.2741 295.31743,23.545 z"
             clip-path="url(#pda61f534b8)"
             style="fill:#515734;stroke:#000000;stroke-width:30"
             id="path141" /><path
             d="M 896.78729,1478.9647 830.2511,898.58981 437.44831,1424.0552 Z"
             clip-path="url(#pda61f534b8)"
             style="fill:#c3ae86;stroke:#000000;stroke-width:30"
             id="path142" /><path
             d="m 896.78729,1478.9647 291.33041,571.6774 377.7438,-584.0523 z"
             clip-path="url(#pda61f534b8)"
             style="fill:#cfb68e;stroke:#000000;stroke-width:30"
             id="path143" /><path
             d="m 1565.8615,1466.5898 698.3704,-79.646 -369.0056,-528.40425 z"
             clip-path="url(#pda61f534b8)"
             style="fill:#e1b989;stroke:#000000;stroke-width:30"
             id="path144" /><path
             d="m 2087.5667,395.56636 -659.1956,128.51438 466.8552,334.45881 z"
             clip-path="url(#pda61f534b8)"
             style="fill:#d7a36b;stroke:#000000;stroke-width:30"
             id="path145" /><path
             d="M 1428.3711,524.08074 988.47308,451.13351 830.2511,898.58981 Z"
             clip-path="url(#pda61f534b8)"
             style="fill:#e7c497;stroke:#000000;stroke-width:30"
             id="path146" /><path
             d="m 2756.8552,3887.0355 20.2361,-29.9347 -607.174,149.272 260.6342,-24.0575 82.3726,-17.4029 135.7193,-38.6961 z"
             clip-path="url(#pda61f534b8)"
             style="fill:#ac9c75;stroke:#000000;stroke-width:30"
             id="path147" /><path
             d="m 1615.8487,3982.3154 554.0686,24.0574 -501.595,-105.4655 -129.1006,64.3444 5.5815,2.0538 35.5227,7.505 z"
             clip-path="url(#pda61f534b8)"
             style="fill:#2f3d1c;stroke:#000000;stroke-width:30"
             id="path148" /><path
             d="M 3960.8213,1467.0619 3707.8345,966.33643 3842.3213,1513.284 Z"
             clip-path="url(#pda61f534b8)"
             style="fill:#be712a;stroke:#000000;stroke-width:30"
             id="path149" /><path
             d="m 3266.27,583.42105 441.5645,382.91538 -327.7999,-438.2026 z"
             clip-path="url(#pda61f534b8)"
             style="fill:#be712a;stroke:#000000;stroke-width:30"
             id="path150" /><path
             d="M 3102.6135,890.32492 3266.27,583.42105 2725.5335,418.53306 Z"
             clip-path="url(#pda61f534b8)"
             style="fill:#be712a;stroke:#000000;stroke-width:30"
             id="path151" /><path
             d="M 3475.2397,1490.4928 3102.6135,890.32492 2928.5989,1396.7811 Z"
             clip-path="url(#pda61f534b8)"
             style="fill:#cc8d4e;stroke:#000000;stroke-width:30"
             id="path152" /><path
             d="m 3739.2405,2048.6264 103.0808,-535.3424 -367.0816,-22.7912 z"
             clip-path="url(#pda61f534b8)"
             style="fill:#c98747;stroke:#000000;stroke-width:30"
             id="path153" /><path
             d="m 158.24689,1449.4193 42.00806,533.084 237.19336,-558.4481 z"
             clip-path="url(#pda61f534b8)"
             style="fill:#8a825d;stroke:#000000;stroke-width:30"
             id="path154" /><path
             d="M 691.42933,515.19931 988.47308,451.13351 1215.649,184.97892 Z"
             clip-path="url(#pda61f534b8)"
             style="fill:#eac99e;stroke:#000000;stroke-width:30"
             id="path155" /><path
             d="M 2725.5335,418.53306 2281.4788,124.97699 2087.5667,395.56636 Z"
             clip-path="url(#pda61f534b8)"
             style="fill:#c37c39;stroke:#000000;stroke-width:30"
             id="path156" /><path
             d="m 3361.9845,511.20362 18.0501,16.93021 4.4293,3.04808 -9.0497,-8.73011 z"
             clip-path="url(#pda61f534b8)"
             style="fill:#be712a;stroke:#000000;stroke-width:30"
             id="path157" /><path
             d="m 2928.5989,1396.7811 -664.367,-9.8373 369.0179,592.8186 z"
             clip-path="url(#pda61f534b8)"
             style="fill:#dcae7a;stroke:#000000;stroke-width:30"
             id="path158" /><path
             d="m 3739.2405,2048.6264 -267.3092,565.6993 346.7953,-24.5428 z"
             clip-path="url(#pda61f534b8)"
             style="fill:#d7a36b;stroke:#000000;stroke-width:30"
             id="path159" /><path
             d="M 1553.4817,2641.6725 1188.1177,2050.6421 922.59334,2628.367 Z"
             clip-path="url(#pda61f534b8)"
             style="fill:#a1946d;stroke:#000000;stroke-width:30"
             id="path160" /><path
             d="m 1801.8626,3633.0863 -609.7038,-31.2718 476.1635,299.0928 z"
             clip-path="url(#pda61f534b8)"
             style="fill:#3a4624;stroke:#000000;stroke-width:30"
             id="path161" /><path
             d="m 2950.8082,3592.3207 -173.7169,264.7801 533.1876,-325.9015 z"
             clip-path="url(#pda61f534b8)"
             style="fill:#dabf96;stroke:#000000;stroke-width:30"
             id="path162" /><path
             d="m 3963.7212,1469.7158 -2.8999,-2.6539 35.3849,134.6432 -0.6911,-3.9372 z"
             clip-path="url(#pda61f534b8)"
             style="fill:#be712a;stroke:#000000;stroke-width:30"
             id="path163" /></g><g
           id="patch_3"><path
             d="m 4039.2,2015.3183 -4.8685,140.0895 -14.5835,139.4092 -24.2329,138.0516 -33.7731,136.0234 -43.1603,133.334 -52.3516,129.9964 -61.3039,126.0264 -69.9748,121.4429 -78.3227,116.2678 -86.3062,110.5259 -93.8858,104.2448 -101.0225,97.4545 -107.6792,90.1879 -113.8203,82.4799 -119.4129,74.3681 -124.4256,65.8917 -128.8305,57.092 -132.6023,48.012 -135.7193,38.6961 -138.163,29.1899 -139.9191,19.5401 -140.9769,9.7941 h -141.3302 l -140.9769,-9.7941 -139.9191,-19.5401 -138.163,-29.1899 -135.7193,-38.6961 -132.6023,-48.012 -128.8305,-57.092 -124.4256,-65.8917 -119.41285,-74.3681 -113.82037,-82.4799 -107.67916,-90.1879 -101.02249,-97.4545 -93.8858,-104.2448 L 389.77127,3195.9595 311.44864,3079.6917 241.4738,2958.2488 180.1699,2832.2224 127.8183,2702.226 84.657963,2568.892 50.884927,2432.8686 26.651995,2294.817 12.068472,2155.4078 7.2,2015.3183 l 4.868472,-140.0896 14.583523,-139.4092 24.232932,-138.0516 33.773036,-136.0234 43.160337,-133.334 52.3516,-129.9964 61.3039,-126.0264 69.97484,-121.44288 78.32263,-116.26782 86.30626,-110.52593 93.8858,-104.24477 101.02249,-97.4545 107.67916,-90.18786 113.82037,-82.47995 119.41285,-74.3681 124.4256,-65.89169 128.8305,-57.09202 132.6023,-48.012 135.7193,-38.696064 138.163,-29.189875 L 1811.558,16.99415 1952.5349,7.2 h 141.3302 l 140.9769,9.79415 139.9191,19.540091 138.163,29.189875 135.7193,38.696064 132.6023,48.012 128.8305,57.09202 124.4256,65.89169 119.4129,74.3681 113.8203,82.47995 107.6792,90.18786 101.0225,97.4545 93.8858,104.24477 86.3062,110.52593 78.3227,116.26782 69.9748,121.44288 61.3039,126.0264 52.3516,129.9964 43.1603,133.334 33.7731,136.0234 24.2329,138.0516 14.5835,139.4092 z"
             style="fill:none;stroke:#000000;stroke-width:0.8;stroke-linecap:square;stroke-linejoin:miter"
             id="path164" /></g></g></g></g></svg>
